<?xml version="1.0" encoding="UTF-8"?><svg id="Layer_2" xmlns="http://www.w3.org/2000/svg" viewBox="0 0 529.69 216.72"><defs><style>.cls-1{fill:#fff;}</style></defs><g id="Layer_1-2"><path class="cls-1" d="M43.96,109.15l-13.15,1.44c9.83,29.1,48.01,51.45,95.15,54.65l.54-5.62c-42.11-3.15-75.8-23.92-82.53-50.47Z"/><path class="cls-1" d="M137.65,172.34c-65.19,0-120.22-25.27-137.65-64.19v41.01c9.43,37.53,64.57,61.37,124.98,65.34v-22.13c0-7.32,5.57-13.26,12.44-13.26s12.44,5.94,12.44,13.26v22.2c59.92-3.51,112.81-24.7,125.14-64.71v-41.01c-17.78,38.56-72.54,63.49-137.34,63.49Z"/><path class="cls-1" d="M125.91,165.65l.03-.36c-60.91-3.67-108.53-35.7-108.53-74.66,0-31.08,30.29-57.74,73.45-69.13l3.13,10.19C55.35,42.46,28.33,67.09,28.33,95.76c0,1.99.14,3.97.39,5.92l14.02-1.45c0-.29-.02-.58-.02-.87,0-32.42,39.79-58.9,89.85-60.59v-12.81c-10.7.31-20.99,1.61-30.67,3.75l-2.98-10.13c12.15-2.58,25.18-3.98,38.73-3.98,66.4,0,120.23,33.59,120.23,75.02,0,37.01-42.97,67.76-99.48,73.9l-.02-.14c22.19-2.72,42-9.74,57.23-19.64l-7.35-4.83c-13.12,9.33-30.69,16.04-50.59,18.77l-1.12-9.02s0,0,0,0l-.9-7.38c-5.73.97-11.76,1.49-18.01,1.49-36.62,0-66.31-17.87-66.31-39.91,0-7.98,3.89-15.41,10.6-21.65l8.33,7.9c-5.42,5.01-8.56,10.94-8.56,17.3,0,7.83,4.76,15.02,12.69,20.63-1.74-2.74-2.7-5.69-2.7-8.77,0-14.33,20.58-25.94,45.96-25.94s45.96,11.61,45.96,25.94c0,2.52-.65,4.96-1.84,7.26l-.67,1.19c-.06.1-.12.21-.19.31,0,0,.01,0,.02-.01l-.04.06,4.94,3.19c-6.13,3.9-13.55,7.06-21.86,9.22l2.08,7.43c27.22-6.05,47.79-20.55,53.22-38.31l11.93.04c-2.39,8.92-7.82,17.17-15.59,24.3l8.17,4.81c12.92-10.56,21.2-23.54,22.86-37.71.1-.93.35-3.33.31-4.85,0-.15,0-.3,0-.45,0-37.49-46.2-68.08-104.19-69.8l-.19,12.8c48.54,1.59,87.44,26.48,89.87,57.51.07,1.04.22,2.93.07,4.79h-6.09s0,0,0,0l-5.76.03c0-.28.02-.56.02-.84,0-14.54-10.02-27.66-26.07-36.91l-11.48,11.47c12.82,7.28,20.83,17.6,20.83,29.04,0,7.79-3.71,15.05-10.12,21.19l-5.68-3.65c3.48-4.24,5.44-8.98,5.44-13.99,0-11.69-10.62-21.95-26.55-27.68l8.27-8.72s0,0,0,0l11.16-11.79c-13.71-6.1-30.59-9.7-48.84-9.7s-36.18,3.83-50.11,10.27l11.35,11.67c10.9-4.73,24.28-7.52,38.75-7.52,9.08,0,17.72,1.1,25.6,3.09l-8.96,9.3c-5.25-.95-10.84-1.46-16.63-1.46-14.78,0-28.21,3.33-38.22,8.77l-20.01-19.57c-15.32,9.2-24.82,22.01-24.82,36.17,0,28.02,37.18,50.73,83.05,50.73,3.37,0,6.69-.13,9.96-.36l.84,9.02s-.03,0-.05,0l.5,5.62s.05,0,.07,0v.04s-.05,0-.07,0l.03.37c70.54-3.4,126.02-38.6,126.02-81.52,0-.06,0-.13,0-.19-2.87-37.96-45.2-69.46-101.93-78.87-11.27-1.78-23.1-2.74-35.3-2.74-13.33,0-26.22,1.14-38.41,3.25C44.97,15.45,4.51,45.67.52,82.15c-.03.67-.04,1.33-.04,2,0,42.8,55.17,77.92,125.44,81.49Z"/><path class="cls-1" d="M298.14,1.77h25.78c20.53,0,25.55,13.58,25.55,34.54v144.09c0,20.96-5.02,34.54-25.55,34.54h-25.78V1.77ZM321.18,198.41c10.04,0,13.23-4.13,13.23-16.53V34.84c0-12.4-3.19-16.53-13.23-16.53h-7.98v180.11h7.98Z"/><path class="cls-1" d="M410.61,155.9h-26.46l-6.16,59.05h-15.06L387.11,1.77h20.53l24.18,213.18h-15.06l-6.16-59.05ZM397.6,16.53h-.46l-11.41,122.83h23.27l-11.41-122.83Z"/><path class="cls-1" d="M446.87,1.77h15.06v213.18h-15.06V1.77Z"/><path class="cls-1" d="M514.17,31c0-8.27-1.6-14.47-8.67-14.47s-8.67,6.2-8.67,14.47v22.44c0,6.79.91,13.58,3.42,19.19l23.95,53.15c3.42,7.38,5.48,16.53,5.48,25.98v33.66c0,20.08-9.12,31.3-24.18,31.3-16.65,0-24.64-9.74-24.64-31.3v-29.23h15.06v28.05c0,10.04,2.97,15.94,9.58,15.94,6.16,0,9.13-5.91,9.13-15.94v-29.82c0-7.38-1.14-12.99-4.33-20.37l-22.13-49.9c-4.11-9.15-6.39-16.24-6.39-27.16v-25.69c0-20.96,8.44-31.3,23.73-31.3,16.88,0,23.73,10.33,23.73,29.82v27.16h-15.06v-25.98Z"/></g></svg>